<svg width="24" height="24" viewBox="0 0 24 24" fill="none" xmlns="http://www.w3.org/2000/svg">
<path d="M4 6C4 5.05719 4 4.58579 4.29289 4.29289C4.58579 4 5.05719 4 6 4H8C8.94281 4 9.41421 4 9.70711 4.29289C10 4.58579 10 5.05719 10 6V8C10 8.94281 10 9.41421 9.70711 9.70711C9.41421 10 8.94281 10 8 10H6C5.05719 10 4.58579 10 4.29289 9.70711C4 9.41421 4 8.94281 4 8V6Z" stroke="#11293A" stroke-linejoin="round"/>
<path d="M4 16C4 15.0572 4 14.5858 4.29289 14.2929C4.58579 14 5.05719 14 6 14H8C8.94281 14 9.41421 14 9.70711 14.2929C10 14.5858 10 15.0572 10 16V18C10 18.9428 10 19.4142 9.70711 19.7071C9.41421 20 8.94281 20 8 20H6C5.05719 20 4.58579 20 4.29289 19.7071C4 19.4142 4 18.9428 4 18V16Z" stroke="#11293A" stroke-linejoin="round"/>
<path d="M14 16C14 15.0572 14 14.5858 14.2929 14.2929C14.5858 14 15.0572 14 16 14H18C18.9428 14 19.4142 14 19.7071 14.2929C20 14.5858 20 15.0572 20 16V18C20 18.9428 20 19.4142 19.7071 19.7071C19.4142 20 18.9428 20 18 20H16C15.0572 20 14.5858 20 14.2929 19.7071C14 19.4142 14 18.9428 14 18V16Z" stroke="#11293A" stroke-linejoin="round"/>
<path d="M14 6C14 5.05719 14 4.58579 14.2929 4.29289C14.5858 4 15.0572 4 16 4H18C18.9428 4 19.4142 4 19.7071 4.29289C20 4.58579 20 5.05719 20 6V8C20 8.94281 20 9.41421 19.7071 9.70711C19.4142 10 18.9428 10 18 10H16C15.0572 10 14.5858 10 14.2929 9.70711C14 9.41421 14 8.94281 14 8V6Z" stroke="#11293A" stroke-linejoin="round"/>
</svg>
